<?xml version="1.0" encoding="UTF-8" standalone="no"?>
<!DOCTYPE svg PUBLIC "-//W3C//DTD SVG 1.1//EN" "http://www.w3.org/Graphics/SVG/1.1/DTD/svg11.dtd">
<svg width="100%" height="100%" viewBox="0 0 512 512" version="1.1" xmlns="http://www.w3.org/2000/svg" xmlns:xlink="http://www.w3.org/1999/xlink" xml:space="preserve" xmlns:serif="http://www.serif.com/" style="fill-rule:evenodd;clip-rule:evenodd;stroke-linejoin:round;stroke-miterlimit:2;">
    <g id="Solid">
        <path d="M240,424C239.982,437.159 229.159,447.982 216,448L124,448C90.92,448 64,420.91 64,387.62L64,353.94L56.97,360.97C52.46,365.554 46.292,368.138 39.862,368.138C26.696,368.138 15.862,357.304 15.862,344.138C15.862,337.708 18.446,331.54 23.03,327.03L71.03,279.03C80.34,269.721 95.66,269.721 104.97,279.03L152.97,327.03C157.554,331.54 160.138,337.708 160.138,344.138C160.138,357.304 149.304,368.138 136.138,368.138C129.708,368.138 123.54,365.554 119.03,360.97L112,353.94L112,387.62C111.9,394.306 117.315,399.891 124,400L216,400C229.159,400.018 239.982,410.841 240,424Z" style="fill:rgb(28,153,4);fill-rule:nonzero;"/>
        <path d="M448,296L448,388C447.96,420.9 420.9,447.96 388,448L353.94,448L360.97,455.03C365.554,459.54 368.138,465.708 368.138,472.138C368.138,485.304 357.304,496.138 344.138,496.138C337.708,496.138 331.54,493.554 327.03,488.97L279.03,440.97C269.721,431.66 269.721,416.34 279.03,407.03L327.03,359.03C331.54,354.446 337.708,351.862 344.138,351.862C357.304,351.862 368.138,362.696 368.138,375.862C368.138,382.292 365.554,388.46 360.97,392.97L353.94,400L388,400C394.581,399.995 399.995,394.581 400,388L400,296C400,282.834 410.834,272 424,272C437.166,272 448,282.834 448,296Z" style="fill:rgb(255,207,0);fill-rule:nonzero;"/>
        <path d="M496,168C496.016,174.366 493.483,180.48 488.97,184.97L440.97,232.97C431.66,242.279 416.34,242.279 407.03,232.97L359.03,184.97C354.446,180.46 351.862,174.292 351.862,167.862C351.862,154.696 362.696,143.862 375.862,143.862C382.292,143.862 388.46,146.446 392.97,151.03L400,158.06L400,124C399.995,117.419 394.581,112.005 388,112L296,112C282.834,112 272,101.166 272,88C272,74.834 282.834,64 296,64L388,64C420.9,64.04 447.96,91.1 448,124L448,158.06L455.03,151.03C459.529,146.522 465.642,143.986 472.011,143.986C485.171,143.986 496,154.815 496,167.975C496,167.983 496,167.992 496,168Z" style="fill:rgb(255,0,0);fill-rule:nonzero;"/>
        <path d="M240,88C240.016,94.366 237.483,100.48 232.97,104.97L184.97,152.97C180.46,157.554 174.292,160.138 167.862,160.138C154.696,160.138 143.862,149.304 143.862,136.138C143.862,129.708 146.446,123.54 151.03,119.03L158.06,112L124,112C117.419,112.005 112.005,117.419 112,124L112,216C112,229.166 101.166,240 88,240C74.834,240 64,229.166 64,216L64,124C64.04,91.1 91.1,64.04 124,64L158.06,64L151.03,56.97C146.446,52.46 143.862,46.292 143.862,39.862C143.862,26.696 154.696,15.862 167.862,15.862C174.292,15.862 180.46,18.446 184.97,23.03L232.97,71.03C237.483,75.52 240.016,81.634 240,88Z" style="fill:rgb(0,24,255);fill-rule:nonzero;"/>
    </g>
</svg>
